<svg xmlns="http://www.w3.org/2000/svg" viewBox="0 0 20 5" fill="#503191"><path d="M3.338 4.943V3.824a.36.36 0 00-.1-.266.377.377 0 00-.276-.098h-.224c-.044 0-.067.019-.067.056V4.63c0 .115.034.206.1.27A.377.377 0 003.048 5h.223c.045 0 .067-.019.067-.056zm0-1.776v-.182a.362.362 0 00-.1-.271.378.378 0 00-.276-.098h-.234c-.037 0-.057.022-.057.065v.486c0 .044.02.065.057.065h.553c.038 0 .057-.021.057-.065zm6.04-.84V1.209a.36.36 0 00-.1-.267.377.377 0 00-.276-.098h-.224c-.045 0-.067.019-.067.056v1.114c0 .115.034.206.1.27a.377.377 0 00.276.099h.224c.045 0 .067-.019.067-.056zm0-1.776V.37a.361.361 0 00-.1-.271A.378.378 0 009.002 0h-.234c-.038 0-.057.022-.057.065v.486c0 .044.02.065.057.065h.553c.038 0 .057-.021.057-.065zm-.87 1.794v-.504c0-.022-.004-.036-.014-.042a.19.19 0 00-.052-.02.368.368 0 01-.136-.055.573.573 0 01-.114-.098.493.493 0 01-.08-.124.326.326 0 01-.032-.138V.369a.362.362 0 00-.1-.27A.377.377 0 007.704 0H7.48c-.044 0-.066.019-.066.056v1.327c0 .137.027.264.083.383a1.087 1.087 0 00.55.537c.124.056.256.09.395.103.045.003.067-.017.067-.061zm-2.47 2.598v-1a.363.363 0 00-.1-.271.379.379 0 00-.277-.098h-1.1c-.044 0-.066.019-.066.056a.45.45 0 00.045.203.509.509 0 00.286.257.527.527 0 00.188.035h.38v.257h-.4a.653.653 0 01-.29-.068.864.864 0 01-.414-.432.697.697 0 01-.062-.285c0-.118.038-.208.114-.27a.437.437 0 01.286-.094h1.295c.045 0 .067-.019.067-.056v-.192a.361.361 0 00-.1-.27.377.377 0 00-.276-.099h-.98c-.157 0-.3.024-.43.073-.13.048-.242.116-.338.203a.925.925 0 00-.223.315c-.055.123-.082.261-.082.414 0 .19.039.368.115.537.076.168.18.314.312.439a1.483 1.483 0 001.002.402h.981c.044 0 .067-.02.067-.056zm6.218-.712c0-.046.025-.079.076-.098a.736.736 0 01.238-.028h.738a.298.298 0 01-.16.264.718.718 0 01-.35.082c-.161 0-.292-.021-.392-.063-.1-.042-.15-.094-.15-.157zm-.733-.143c0 .165.042.305.126.42.084.116.193.21.326.283.133.073.28.126.44.159.161.032.318.049.47.049h1.033c.038 0 .057-.022.057-.066v-.939c0-.19-.032-.369-.095-.537a1.286 1.286 0 00-.274-.44 1.28 1.28 0 00-.433-.293 1.477 1.477 0 00-.579-.108h-.933c-.044 0-.067.019-.067.056v.192c0 .115.034.205.1.27a.377.377 0 00.276.1h.648a.65.65 0 01.302.069c.091.047.163.107.217.182h-.619c-.32 0-.567.052-.738.154a.493.493 0 00-.257.449zm.482-2.548a.923.923 0 00-.043-.808 1.29 1.29 0 00-.314-.376A1.571 1.571 0 0010.669 0h-.985c-.038 0-.058.018-.058.056v1.957c0 .115.034.206.1.27a.377.377 0 00.277.099h.233c.038 0 .057-.022.057-.066v-.532c.111.087.23.154.36.2a1.305 1.305 0 00.824.007.95.95 0 00.32-.177.794.794 0 00.208-.275zm-.612-.362a.228.228 0 01-.098.193.423.423 0 01-.26.073.737.737 0 01-.268-.051 1.032 1.032 0 01-.238-.131.668.668 0 01-.172-.182.378.378 0 01-.064-.201c0-.09.037-.157.11-.201a.473.473 0 01.247-.066c.092 0 .183.018.271.052a.942.942 0 01.239.133c.07.055.126.115.169.182a.37.37 0 01.064.199zM7.37 2.345v-.504c0-.022-.005-.036-.014-.042a.19.19 0 00-.053-.02.368.368 0 01-.135-.055.573.573 0 01-.115-.098.493.493 0 01-.08-.124.326.326 0 01-.032-.138V.369a.362.362 0 00-.1-.27A.377.377 0 006.566 0h-.224c-.044 0-.066.019-.066.056v1.327c0 .137.028.264.083.383a1.087 1.087 0 00.55.537c.124.056.256.09.395.103.045.003.067-.017.067-.061zm-1.342-.018V1.209a.36.36 0 00-.1-.267.377.377 0 00-.277-.098h-.223c-.045 0-.067.019-.067.056v1.114c0 .115.033.206.1.27a.377.377 0 00.276.099h.224c.044 0 .067-.019.067-.056zm0-1.776V.37a.362.362 0 00-.1-.271A.378.378 0 005.65 0h-.233C5.38 0 5.36.022 5.36.065v.486c0 .044.019.065.057.065h.553c.038 0 .057-.021.057-.065zm5.32 2.415c0-.193-.16-.35-.357-.35h-.379a.073.073 0 00-.048.02l-.759.698c-.26.239-.609.374-.993.374-.4 0-.763-.147-1.026-.405l-.562-.518a.648.648 0 00-.424-.169h-.453a.07.07 0 00-.071.07v1.962c0 .194.16.35.357.35h.232c.04 0 .071-.03.071-.07V4.23c0-.182.152-.333.335-.333.341 0 .585.286.806.477.27.235.479.46.735.46s.464-.225.734-.46c.221-.19.466-.477.806-.477.182 0 .333.149.335.33v.421c0 .194.16.35.357.35H11.276c.04 0 .072-.03.072-.07V2.966zM13.045.73a.376.376 0 01.28-.112c.09 0 .179.024.267.072.09.049.17.111.241.187.071.077.13.162.176.255.046.093.07.187.07.28a.402.402 0 01-.108.29.375.375 0 01-.283.112.552.552 0 01-.267-.073.94.94 0 01-.24-.186 1.044 1.044 0 01-.177-.255.625.625 0 01-.069-.28c0-.118.037-.215.11-.29zM12.325 0c-.038 0-.057.022-.057.066v.967c0 .187.04.364.12.532a1.534 1.534 0 00.77.753 1.32 1.32 0 00.965.037.944.944 0 00.545-.535 1.23 1.23 0 00-.043-.956 1.542 1.542 0 00-.77-.752A1.32 1.32 0 0013.32 0h-.995zm7.303 1.764h-.705a.718.718 0 01-.28-.063.768.768 0 01-.431-.693.38.38 0 01.108-.29.352.352 0 01.177-.091.61.61 0 01.275 0c.08.016.157.047.234.094.11.069.226.172.304.272h-.733c-.044 0-.066.019-.066.056a.37.37 0 00.041.183c.03.061.171.272.46.272h.682c.12 0 .202-.03.247-.093a.3.3 0 00.059-.2.9.9 0 00-.11-.415 1.434 1.434 0 00-.3-.394 1.571 1.571 0 00-.438-.29A1.265 1.265 0 0018.63 0h-1.002a.052.052 0 00-.053.052v.98c0 .183.036.357.108.52a1.385 1.385 0 001.259.831h1.006c.03 0 .053-.023.053-.052v-.198a.364.364 0 00-.1-.27.37.37 0 00-.272-.099zm-2.054.386v.166c0 .043-.019.067-.056.067h-.529a.426.426 0 01-.251-.087l-.802-.62a.282.282 0 01-.09-.212v-.255c0-.044.014-.065.042-.065.029 0 .067.017.086.023.041.015.093.029.096.03.083.025.164.04.243.04.165 0 .298-.073.34-.189.038-.106-.07-.354-.437-.445-.275-.068-.53-.015-.605.12 0 0-.011.02-.018.042a.267.267 0 00-.008.065v.975a.623.623 0 01-.116.402.436.436 0 01-.208.153.586.586 0 01-.169.023.384.384 0 01-.137-.018c-.023-.012-.023-.037-.023-.06V.053c0-.029.024-.052.053-.052h.98a1.709 1.709 0 01.94.303c.134.093.243.203.327.33.084.125.126.26.126.403a.536.536 0 01-.133.371c-.139.156-.292.216-.339.245l.27.209c.252.196.38.23.38.23a.07.07 0 01.038.059zM5.114.35c0-.193-.16-.35-.357-.35h-.378a.073.073 0 00-.05.02l-.757.698c-.26.24-.61.374-.994.374-.4 0-.763-.147-1.026-.404L.99.169A.647.647 0 00.566 0H.113a.07.07 0 00-.07.07v1.963c0 .193.159.35.356.35h.232c.04 0 .072-.032.072-.07v-.699c0-.182.152-.333.335-.333.34 0 .585.287.805.478.27.234.479.46.735.46s.464-.226.735-.46c.22-.191.465-.478.805-.478.182 0 .334.15.335.33v.422c0 .193.16.35.358.35H5.042c.04 0 .072-.032.072-.07V.35zM1.55 3.214c.113.03.21.067.293.114.041.025.072.04.093.047.02.006.044.01.07.01.056 0 .117-.032.18-.094l.243-.248c.01-.009.014-.02.014-.032 0-.016-.01-.033-.028-.052a1.44 1.44 0 00-.531-.285 2.286 2.286 0 00-1.115-.06 1.24 1.24 0 00-.36.13.71.71 0 00-.25.232.614.614 0 00-.092.343c0 .118.026.22.08.304a.7.7 0 00.224.214c.096.06.208.107.339.143.13.036.271.065.424.086.11.016.201.03.271.045.07.014.125.028.166.042.042.014.07.03.084.047a.095.095 0 01.021.063c0 .05-.03.085-.092.105a.81.81 0 01-.246.03c-.168 0-.31-.014-.428-.042a1.13 1.13 0 01-.305-.117.487.487 0 00-.093-.046.246.246 0 00-.07-.01c-.056 0-.117.032-.18.094l-.248.252A.045.045 0 000 4.56c0 .015.01.032.029.051a.94.94 0 00.23.161c.094.049.2.09.32.122A3.282 3.282 0 001.405 5H2.41c.016 0 .027-.006.033-.019a.051.051 0 00.005-.023V4.41c0-.159-.02-.29-.057-.395a.641.641 0 00-.417-.404c-.1-.034-.212-.06-.336-.08-.257-.037-.46-.07-.61-.102-.149-.031-.223-.076-.223-.135 0-.084.12-.127.362-.127.143 0 .27.015.383.045z" /></svg>
